<?xml version="1.0" standalone="no"?>
<!DOCTYPE svg PUBLIC "-//W3C//DTD SVG 20010904//EN"
 "http://www.w3.org/TR/2001/REC-SVG-20010904/DTD/svg10.dtd">
<svg version="1.0" xmlns="http://www.w3.org/2000/svg"
 width="490.000000pt" height="490.000000pt" viewBox="0 0 490.000000 490.000000"
 preserveAspectRatio="xMidYMid meet">
<metadata>
Created by potrace 1.14, written by Peter Selinger 2001-2017
</metadata>
<g transform="translate(0.000000,490.000000) scale(0.100000,-0.100000)"
fill="#000000" stroke="none">
<path d="M2255 4749 c-464 -35 -912 -215 -1280 -512 -103 -84 -294 -280 -372
-382 -193 -256 -336 -550 -407 -835 -137 -556 -78 -1104 171 -1605 183 -369
468 -686 825 -919 461 -301 1073 -425 1624 -331 733 125 1359 589 1687 1250
325 653 325 1407 0 2060 -117 236 -262 433 -459 625 -399 388 -884 606 -1444
650 -140 11 -200 11 -345 -1z m127 -891 c68 -8 107 -9 130 -2 28 9 48 6 128
-21 127 -42 216 -88 223 -115 5 -19 2 -21 -16 -15 -12 3 -146 10 -297 14 -339
10 -461 1 -635 -49 -87 -25 -85 -25 -85 4 0 29 13 40 65 56 22 7 67 27 100 45
100 53 201 88 275 94 8 1 59 -4 112 -11z m27 -173 c46 -23 56 -85 21 -122 -21
-23 -34 -25 -215 -42 -91 -8 -290 -52 -391 -86 -20 -6 -23 -2 -29 34 -4 23 -4
63 0 89 l6 49 67 21 c168 54 483 87 541 57z m396 -3 c80 -8 82 -11 84 -126 1
-66 0 -68 -21 -62 -38 10 -248 35 -328 38 -41 2 -76 7 -77 11 -5 14 10 42 30
58 20 17 16 39 -7 39 -8 0 -16 8 -20 18 -3 9 -8 22 -11 27 -5 11 228 9 350 -3z
m-160 -182 c165 -16 222 -29 239 -55 9 -14 29 -25 54 -28 83 -14 232 -142 232
-201 0 -13 7 -58 16 -98 11 -53 17 -159 21 -383 4 -170 6 -321 6 -335 0 -52
-52 -222 -82 -269 -17 -26 -31 -56 -31 -67 0 -10 -11 -32 -23 -48 l-23 -29
-60 73 c-77 96 -95 113 -163 152 -100 58 -108 60 -203 53 -101 -8 -112 2 -43
35 50 24 75 61 75 110 0 43 -16 70 -42 70 -20 0 -20 -1 -4 -19 9 -10 17 -35
18 -56 1 -30 -4 -43 -26 -62 -18 -15 -35 -22 -47 -18 -12 4 -21 1 -25 -8 -8
-22 -75 -64 -123 -77 -54 -14 -108 2 -163 49 -26 22 -43 31 -46 23 -6 -19 -50
-14 -72 8 -24 24 -19 62 11 96 24 26 24 34 -1 34 -24 0 -46 -33 -55 -80 -5
-28 -2 -42 15 -63 12 -15 30 -27 41 -27 11 0 17 -4 14 -10 -3 -5 -16 -10 -28
-10 -12 0 -58 -18 -102 -39 -91 -44 -136 -87 -185 -179 -18 -33 -40 -68 -50
-77 -16 -15 -21 -15 -47 -2 -15 8 -51 39 -79 69 -110 116 -125 166 -132 433
-2 110 -5 218 -5 240 0 71 22 350 29 370 3 11 17 48 30 82 13 34 24 70 24 82
0 21 56 71 125 111 22 13 50 32 62 43 33 30 246 83 428 107 89 11 295 11 420
0z m709 -722 c10 -39 5 -151 -9 -193 -12 -37 -13 -31 -12 88 1 121 8 154 21
105z m-1937 -30 c-3 -8 -6 -5 -6 6 -1 11 2 17 5 13 3 -3 4 -12 1 -19z m2 -96
c-1 -49 -3 -60 -9 -42 -12 37 -12 122 0 115 6 -3 10 -36 9 -73z m1225 -599
c59 -17 -170 -73 -297 -73 -50 0 -154 15 -187 26 -23 8 44 34 130 50 72 13
307 11 354 -3z m104 -25 c18 -18 15 -39 -19 -114 -67 -148 -118 -191 -256
-214 -141 -23 -289 14 -355 89 -40 45 -103 180 -91 192 6 6 14 -5 21 -28 6
-21 27 -54 47 -73 19 -19 35 -39 35 -46 0 -6 24 -22 53 -35 42 -18 75 -23 174
-27 140 -5 207 10 267 60 68 56 123 158 104 191 -10 20 2 23 20 5z m76 -58
c24 -29 25 -35 21 -126 -4 -87 -7 -102 -45 -180 -42 -87 -53 -97 -123 -111
-25 -5 -29 -1 -48 43 -12 27 -23 50 -24 52 -2 2 -19 -4 -40 -12 -78 -33 -257
-42 -291 -15 -7 6 -20 -5 -38 -31 -38 -58 -67 -74 -121 -65 -61 9 -111 54
-147 132 -35 78 -36 125 -2 225 23 70 44 101 44 64 0 -30 73 -156 109 -189 21
-19 65 -45 97 -58 50 -20 76 -24 174 -23 193 0 263 43 346 207 24 49 44 95 44
103 0 22 16 16 44 -16z m-224 -55 c17 -21 1 -38 -62 -65 -77 -33 -139 -35
-246 -10 -50 12 -90 26 -86 31 3 5 19 16 36 25 31 16 69 16 168 -1 25 -5 31
-4 21 4 -12 7 -7 12 20 19 54 16 135 14 149 -3z m39 -42 c-47 -59 -116 -83
-240 -83 -99 0 -178 14 -205 36 -18 14 -17 15 11 10 17 -3 61 -12 100 -21 38
-8 91 -15 118 -15 60 0 154 33 187 65 28 28 50 34 29 8z m774 -469 c3 -3 2
-16 -3 -27 -5 -12 -11 -31 -15 -42 -5 -18 -8 -16 -27 13 -16 26 -18 35 -8 47
13 15 42 20 53 9z"/>
<path d="M2383 3625 c-3 -9 -3 -18 0 -21 9 -9 27 6 27 22 0 19 -19 18 -27 -1z"/>
<path d="M2283 3618 c2 -7 10 -13 17 -13 7 0 15 6 18 13 2 7 -5 12 -18 12 -13
0 -20 -5 -17 -12z"/>
<path d="M2190 3605 c0 -8 7 -15 15 -15 8 0 15 7 15 15 0 8 -7 15 -15 15 -8 0
-15 -7 -15 -15z"/>
<path d="M2111 3596 c-9 -10 -9 -16 -1 -21 17 -10 37 12 24 25 -8 8 -15 6 -23
-4z"/>
<path d="M2026 3583 c-11 -11 -6 -23 9 -23 8 0 15 4 15 9 0 13 -16 22 -24 14z"/>
<path d="M1935 3559 c-4 -6 -5 -13 -2 -16 7 -7 27 6 27 18 0 12 -17 12 -25 -2z"/>
<path d="M1855 3550 c-8 -13 4 -32 16 -25 12 8 12 35 0 35 -6 0 -13 -4 -16
-10z"/>
<path d="M2565 3630 c-11 -17 5 -32 21 -19 7 6 11 15 8 20 -7 12 -21 11 -29
-1z"/>
<path d="M2655 3611 c-3 -5 -1 -12 5 -16 12 -7 30 2 30 16 0 12 -27 12 -35 0z"/>
<path d="M2747 3603 c-12 -11 -8 -23 8 -23 8 0 15 7 15 15 0 16 -12 20 -23 8z"/>
<path d="M2824 3589 c-3 -6 -2 -15 4 -21 13 -13 32 -2 32 18 0 16 -26 19 -36
3z"/>
<path d="M2580 3108 c-29 -15 -40 -77 -18 -95 8 -7 83 -13 178 -16 91 -3 180
-8 198 -12 65 -14 20 60 -61 99 -65 31 -254 46 -297 24z"/>
<path d="M1977 3074 c-43 -8 -90 -20 -106 -28 -35 -19 -101 -91 -101 -112 0
-18 1 -17 100 11 30 8 106 18 169 22 92 5 118 10 133 25 24 24 23 53 -2 78
-24 24 -77 25 -193 4z"/>
<path d="M2681 2874 c-24 -30 -29 -122 -9 -142 20 -20 55 -14 71 12 33 50 34
108 1 140 -22 23 -40 20 -63 -10z"/>
<path d="M2478 2873 c-25 -30 -38 -82 -38 -160 0 -75 19 -143 41 -143 7 0 8 7
4 18 -17 42 -17 168 -1 231 9 35 15 66 13 68 -2 2 -11 -5 -19 -14z"/>
<path d="M2220 2878 c0 -2 9 -27 20 -56 16 -41 20 -76 20 -164 0 -85 3 -109
12 -100 18 18 27 119 17 184 -10 63 -42 138 -59 138 -6 0 -10 -1 -10 -2z"/>
<path d="M1975 2850 c-12 -14 -18 -35 -17 -65 1 -126 113 -126 116 0 2 73 -57
112 -99 65z"/>
<path d="M2670 2443 c0 -5 16 -19 34 -31 35 -24 113 -103 154 -156 27 -35 39
-29 19 11 -43 83 -207 222 -207 176z"/>
<path d="M2009 2365 c-54 -41 -116 -126 -125 -172 -9 -47 9 -41 32 9 10 24 49
75 87 114 37 39 67 74 67 78 0 12 -16 5 -61 -29z"/>
</g>
</svg>
